<svg width="1440" height="587" viewBox="0 0 1440 587" fill="none" xmlns="http://www.w3.org/2000/svg">
<g clip-path="url(#clip0_3136_223)">
<path opacity="0.3" d="M155.196 315.228C76.9519 346.971 48.4601 350.999 -23.5006 340.486C-130.347 324.89 -247.971 387.295 -244.648 516.326C-242.914 583.647 -162.431 690.697 -34.0919 718.455C102.575 748.015 282.419 668.605 355.474 548.527C418.46 445.014 392.113 326.267 298.263 290.669C266.433 278.595 230.137 284.822 155.196 315.228Z" fill="white"/>
<path opacity="0.3" d="M855.25 248.602C933.03 297.714 954.686 320.38 991.068 390.76C1045.1 495.249 1175.03 559.756 1287.14 474.889C1345.64 430.611 1389.31 291.394 1332.4 160.155C1271.79 20.4008 1072.14 -99.85 919.46 -88.2826C787.832 -78.3198 697.967 9.62431 726.741 109.367C739.043 152.012 780.751 201.564 855.25 248.602Z" fill="white"/>
</g>
<defs>
<clipPath id="clip0_3136_223">
<rect width="1440" height="587" fill="white" transform="matrix(-1 0 0 1 1440 0)"/>
</clipPath>
</defs>
</svg>
