<svg width="1440" height="587" viewBox="0 0 1440 587" fill="none" xmlns="http://www.w3.org/2000/svg">
<g clip-path="url(#clip0_3136_223)">
<path opacity="0.15" d="M1284.8 315.228C1363.05 346.971 1391.54 350.999 1463.5 340.486C1570.35 324.89 1687.97 387.295 1684.65 516.326C1682.91 583.647 1602.43 690.697 1474.09 718.455C1337.43 748.015 1157.58 668.605 1084.53 548.527C1021.54 445.014 1047.89 326.267 1141.74 290.669C1173.57 278.595 1209.86 284.822 1284.8 315.228Z" fill="white"/>
<path opacity="0.15" d="M584.75 248.602C506.97 297.714 485.314 320.38 448.932 390.76C394.9 495.249 264.972 559.756 152.855 474.889C94.3594 430.611 50.6917 291.394 107.603 160.155C168.208 20.4008 367.855 -99.85 520.54 -88.2826C652.168 -78.3198 742.033 9.62431 713.259 109.367C700.957 152.012 659.249 201.564 584.75 248.602Z" fill="white"/>
</g>
<defs>
<clipPath id="clip0_3136_223">
<rect width="1440" height="587" fill="white"/>
</clipPath>
</defs>
</svg>
